PathFileType	4	(X/Y/Z)	C:/Users/Carlo/Dropbox/Carlos/SARAH/CongressoMarcha2025/WorkshopOpenSim/C3D/Caso03/pyCGM2 Static.c3d.trc
DataRate	CameraRate	NumFrames	NumMarkers	Units	OrigDataRate	OrigDataStartFrame	OrigNumFrames
100.000000	100.000000	3	128	mm	100.000000	316	422
Frame#	Time	LASI			RASI			LPSI			RPSI			LTHI			LTHAP			LTHAD			LKNE			LKNM			LTIB			LTIAP			LTIAD			LANK			LMED			LHEE			LTOE			RTHI			RTHAP			RTHAD			RKNE			RKNM			RTIB			RTIAP			RTIAD			RANK			RMED			RHEE			RTOE			PELO			PELA			PELL			PELP			LFEO			LFEA			LFEL			LFEP			LTIO			LTIA			LTIL			LTIP			LFOO			LFOA			LFOL			LFOP			LTOO			LTOA			LTOL			LTOP			RFEO			RFEA			RFEL			RFEP			RTIO			RTIA			RTIL			RTIP			RFOO			RFOA			RFOL			RFOP			RTOO			RTOA			RTOL			RTOP			PELVIS_CGM_2.3O			PELVIS_CGM_2.3A			PELVIS_CGM_2.3L			PELVIS_CGM_2.3P			LFEMUR_CGM_2.3O			LFEMUR_CGM_2.3A			LFEMUR_CGM_2.3L			LFEMUR_CGM_2.3P			LTIBIA_CGM_2.3O			LTIBIA_CGM_2.3A			LTIBIA_CGM_2.3L			LTIBIA_CGM_2.3P			LFOOT_CGM_2.3O			LFOOT_CGM_2.3A			LFOOT_CGM_2.3L			LFOOT_CGM_2.3P			LTOES_CGM_2.3O			LTOES_CGM_2.3A			LTOES_CGM_2.3L			LTOES_CGM_2.3P			RFEMUR_CGM_2.3O			RFEMUR_CGM_2.3A			RFEMUR_CGM_2.3L			RFEMUR_CGM_2.3P			RTIBIA_CGM_2.3O			RTIBIA_CGM_2.3A			RTIBIA_CGM_2.3L			RTIBIA_CGM_2.3P			RFOOT_CGM_2.3O			RFOOT_CGM_2.3A			RFOOT_CGM_2.3L			RFOOT_CGM_2.3P			RTOES_CGM_2.3O			RTOES_CGM_2.3A			RTOES_CGM_2.3L			RTOES_CGM_2.3P			LHipAngles			LKneeAngles			LAbsAnkleAngle			LAnkleAngles			RHipAngles			RKneeAngles			RAnkleAngles			RAbsAnkleAngle			LPelvisAngles			RPelvisAngles			LFootProgressAngles			RFootProgressAngles			LHipAngles_CGM_2.3			LKneeAngles_CGM_2.3			LAnkleAngles_CGM_2.3			RHipAngles_CGM_2.3			RKneeAngles_CGM_2.3			RAnkleAngles_CGM_2.3			LFootProgressAngles_CGM_2.3			RFootProgressAngles_CGM_2.3			LPelvisAngles_CGM_2.3			RPelvisAngles_CGM_2.3			LHJC_CGM_2.3			LKJC_CGM_2.3			RHJC_CGM_2.3			RKJC_CGM_2.3			LAJC_CGM_2.3			RAJC_CGM_2.3			
		X1	Y1	Z1	X2	Y2	Z2	X3	Y3	Z3	X4	Y4	Z4	X5	Y5	Z5	X6	Y6	Z6	X7	Y7	Z7	X8	Y8	Z8	X9	Y9	Z9	X10	Y10	Z10	X11	Y11	Z11	X12	Y12	Z12	X13	Y13	Z13	X14	Y14	Z14	X15	Y15	Z15	X16	Y16	Z16	X17	Y17	Z17	X18	Y18	Z18	X19	Y19	Z19	X20	Y20	Z20	X21	Y21	Z21	X22	Y22	Z22	X23	Y23	Z23	X24	Y24	Z24	X25	Y25	Z25	X26	Y26	Z26	X27	Y27	Z27	X28	Y28	Z28	X29	Y29	Z29	X30	Y30	Z30	X31	Y31	Z31	X32	Y32	Z32	X33	Y33	Z33	X34	Y34	Z34	X35	Y35	Z35	X36	Y36	Z36	X37	Y37	Z37	X38	Y38	Z38	X39	Y39	Z39	X40	Y40	Z40	X41	Y41	Z41	X42	Y42	Z42	X43	Y43	Z43	X44	Y44	Z44	X45	Y45	Z45	X46	Y46	Z46	X47	Y47	Z47	X48	Y48	Z48	X49	Y49	Z49	X50	Y50	Z50	X51	Y51	Z51	X52	Y52	Z52	X53	Y53	Z53	X54	Y54	Z54	X55	Y55	Z55	X56	Y56	Z56	X57	Y57	Z57	X58	Y58	Z58	X59	Y59	Z59	X60	Y60	Z60	X61	Y61	Z61	X62	Y62	Z62	X63	Y63	Z63	X64	Y64	Z64	X65	Y65	Z65	X66	Y66	Z66	X67	Y67	Z67	X68	Y68	Z68	X69	Y69	Z69	X70	Y70	Z70	X71	Y71	Z71	X72	Y72	Z72	X73	Y73	Z73	X74	Y74	Z74	X75	Y75	Z75	X76	Y76	Z76	X77	Y77	Z77	X78	Y78	Z78	X79	Y79	Z79	X80	Y80	Z80	X81	Y81	Z81	X82	Y82	Z82	X83	Y83	Z83	X84	Y84	Z84	X85	Y85	Z85	X86	Y86	Z86	X87	Y87	Z87	X88	Y88	Z88	X89	Y89	Z89	X90	Y90	Z90	X91	Y91	Z91	X92	Y92	Z92	X93	Y93	Z93	X94	Y94	Z94	X95	Y95	Z95	X96	Y96	Z96	X97	Y97	Z97	X98	Y98	Z98	X99	Y99	Z99	X100	Y100	Z100	X101	Y101	Z101	X102	Y102	Z102	X103	Y103	Z103	X104	Y104	Z104	X105	Y105	Z105	X106	Y106	Z106	X107	Y107	Z107	X108	Y108	Z108	X109	Y109	Z109	X110	Y110	Z110	X111	Y111	Z111	X112	Y112	Z112	X113	Y113	Z113	X114	Y114	Z114	X115	Y115	Z115	X116	Y116	Z116	X117	Y117	Z117	X118	Y118	Z118	X119	Y119	Z119	X120	Y120	Z120	X121	Y121	Z121	X122	Y122	Z122	X123	Y123	Z123	X124	Y124	Z124	X125	Y125	Z125	X126	Y126	Z126	X127	Y127	Z127	X128	Y128	Z128	

317	3.16	310.1590270996095	988.8626098632817	318.4258422851564	315.1559448242189	978.4023437500005	54.99843978881839	507.3087158203127	993.5007934570317	239.878631591797	509.9748229980471	990.7736816406255	137.5096282958985	343.3667297363282	651.8149414062502	373.8421936035157	258.1023559570314	786.8994750976567	318.9912414550782	241.3369598388673	623.0340576171877	311.3650512695314	327.572723388672	490.6887207031252	365.7156677246095	306.8396301269532	470.6543273925784	241.1850433349611	402.3511047363284	262.6776123046876	367.3042602539064	290.8558654785157	376.8644409179689	297.4835510253907	348.3926391601564	208.1614837646486	291.9588317871095	431.312438964844	87.9204025268555	348.5343017578126	392.5999450683596	93.27051544189456	264.5986633300782	466.2498474121096	57.67565536499026	299.4041137695314	277.5704956054689	56.08864974975589	339.3016052246095	356.9767150878907	688.0323486328127	2.830385208129884	261.130828857422	778.8920288085942	70.75522613525393	248.4193115234376	612.695739746094	71.76014709472659	319.1865234375001	475.8950195312502	29.59341239929201	297.2413330078126	469.1262207031252	143.8951721191407	376.3179016113282	303.7816162109376	12.91466331481934	313.0480041503907	317.973114013672	102.8478622436524	346.3035278320314	185.0728454589844	92.13996887207034	420.2066955566409	78.8577575683594	45.37314987182619	390.5500793457034	93.2185974121094	131.2227478027344	463.2209777832034	50.29716491699222	95.69606781005862	274.3775634765626	47.5849952697754	65.64568328857425	357.7442626953126	897.1509399414067	191.001449584961	195.7954254150392	890.0764160156255	188.2103271484376	354.6718139648439	903.5825195312505	352.9719848632814	350.7872924804689	1058.99609375	184.4428710937501	315.7251281738282	486.8381958007815	309.0693664550782	-89.93872070312503	536.3687133789065	390.5474548339846	400.8482055664065	514.5037841796877	716.0629882812502	358.690399169922	899.6777343750005	272.0202026367189	413.3334045410159	90.40513610839847	309.5525512695314	67.63452148437503	5.476158142089846	463.5811157226565	562.794616699219	127.6388092041016	665.530700683594	320.602264404297	467.0297851562502	309.0935058593751	287.1338500976564	78.45036315917972	349.7249450683595	281.950653076172	263.3062133789064	332.5660705566407	325.2347106933595	96.30970001220709	530.618103027344	468.8326110839846	79.97864532470706	311.3034973144532	226.567596435547	77.94092559814456	362.5320739746095	224.8399047851564	139.5595397949219	356.8124084472657	239.2678222656251	83.89408111572268	422.8298034667971	287.1338500976564	78.45030212402347	349.7250061035157	305.0466613769532	474.3649902343752	85.30671691894534	-102.8103332519532	530.5765380859377	-16.66255950927735	200.7429962158204	463.0784606933596	496.278991699219	356.7982177734376	894.6242675781255	109.9826965332032	406.338806152344	85.57310485839847	85.51772308349612	51.91754150390628	-6.822563171386722	-21.4608383178711	302.7674255371095	58.78836059570315	451.7845458984377	310.1393432617189	454.8175048828127	85.31732940673831	279.2311096191407	72.57380676269534	52.33009719848636	274.6554565429689	256.4878234863282	64.48569488525393	250.5040893554689	59.85147094726565	234.0055236816407	461.2939453125002	75.188591003418	81.30149841308597	218.5434875488282	71.70220184326175	42.67296600341798	217.0182495117189	133.0068664550782	46.72483825683595	208.9678344726564	67.46141052246097	103.2314224243165	279.2311096191407	72.57379913330081	52.33007431030276	366.7709960937501	911.640014648438	192.3090057373048	206.4164581298829	904.6841430664067	189.4949645996094	363.6833496093751	917.938842773438	352.6856689453126	359.9321899414064	1071.8955078125	185.8833007812501	318.2669982910157	481.5820007324221	309.2560119628907	-109.9376220703126	534.7571411132815	371.3810424804689	384.264343261719	510.7486572265627	739.1861572265627	366.5522460937501	913.2856445312505	272.5569152832032	413.1359863281252	90.33789825439456	309.6780090332032	54.5785827636719	3.568855285644533	470.8611145019534	569.6888427734377	128.6965789794922	678.584655761719	318.2672424316407	481.5820922851565	309.2561035156251	281.8460083007814	76.62349700927737	325.7359924316407	278.5277709960939	262.1214599609376	317.2197570800782	320.2039184570314	85.64210510253909	507.2308349609377	463.5344848632815	78.10732269287112	287.2634277343751	221.2830047607423	76.12879943847659	338.561004638672	220.1769256591798	137.9613952636719	335.7222595214845	234.0689697265626	79.1350021362305	399.0592041015627	281.8457641601564	76.623405456543	325.7368469238282	308.5079956054689	472.5209960937502	85.85199737548831	-121.9363708496094	534.8272705078127	6.315795898437504	226.118377685547	457.525573730469	519.9919433593752	366.988983154297	909.9949340820317	112.060890197754	406.341003417969	85.45529937744143	85.46939849853518	34.83950805664064	-8.33280181884766	-26.69763946533205	297.6838378906251	57.61260604858401	468.6265869140627	308.5080871582032	472.5206604003909	85.8522644042969	270.4339904785157	70.70860290527347	76.14060211181643	266.8292541503907	261.9616088867189	81.84478759765628	240.5992126464845	64.51136779785159	265.0710754394532	459.4317016601565	73.37808990478518	106.0735931396485	207.4349975585939	69.81909942626956	66.16269683837893	206.2334136962892	133.5700225830079	68.06408691406253	197.4900817871095	67.75335693359378	129.1394500732422	270.4341735839845	70.70893096923831	76.1403503417969	-2.950550556182862	-12.63775825500489	8.330376625061039	0.8292125463485722	-11.02675342559815	20.36195755004884	0	0	13.04174900054932	0.007623624987900261	10.79927825927735	13.28114795684815	-5.457918643951418	-12.57292842864991	9.605926513671879	-2.048124074935914	-2.109977006912232	21.77967262268067	0.007278826553374532	6.758417129516605	13.7073154449463	0	0	13.61022567749024	2.318430185317994	0.9872198700904851	2.461361169815064	-2.318430185317994	-0.9872198700904851	2.461361169815064	-5.418649196624758	-11.93927669525147	-89.51808929443362	-3.827845811843874	-9.040670394897464	-89.17717742919925	-2.715519905090333	-9.568989753723148	8.756990432739261	1.622379899024964	-14.22289943695069	20.48740005493165	-2.697839975357057	11.03240013122559	13.10519981384278	-5.480070114135744	-8.98478984832764	10.18589973449707	-0.7861949801445012	-5.423630237579347	22.02739906311036	-2.076119899749757	6.871449947357181	13.29650020599366	2.686530113220216	-168.0449981689454	-90.46790313720706	1.729200005531312	-171.0009918212891	-90.80899810791018	177.7510070800782	1.10290002822876	-177.5149841308594	-177.7510070800782	-1.10290002822876	-177.5149841308594	366.5530090332032	913.286010742188	272.5570068359376	318.2669982910157	481.5820007324221	309.2560119628907	366.9890136718751	909.994995117188	112.0609970092774	308.5079956054689	472.5209960937502	85.85199737548831	413.1359863281252	90.33789825439456	309.6780090332032	406.341003417969	85.45529937744143	85.46939849853518	
318	3.17	310.1465454101564	988.8742675781255	318.4314270019532	315.1610107421876	978.4212036132817	54.97981262207034	507.3417968750002	993.5090332031255	239.9061279296876	509.9831237792971	990.787963867188	137.5146484375001	343.3892517089845	651.8114013671877	373.8599548339845	258.1004028320314	786.8905639648442	318.9871215820314	241.4990081787111	623.0489501953127	311.5028076171876	327.6411132812501	490.6641845703127	365.7234497070314	306.7763061523439	470.6585388183596	241.2449035644532	402.3621826171877	262.6770629882814	367.2677612304689	290.7369995117189	376.9184875488282	297.3764038085939	348.3683471679689	208.1842346191407	291.9295349121095	431.309020996094	87.93326568603518	348.5144042968751	392.5328369140627	93.28135681152347	264.7093505859376	466.2362365722659	57.67373657226565	299.4154663085939	277.5948181152345	56.07673645019534	339.3433837890626	357.0079345703126	688.0438232421877	2.828343868255616	261.0914001464845	778.9252929687505	70.74990844726565	248.4405059814454	612.7023925781252	71.72190856933597	319.260955810547	475.8891601562502	29.50070571899415	297.3131713867189	469.1480102539065	143.8829193115235	376.3536682128907	303.7852478027345	12.91099452972413	313.089569091797	317.9194335937501	102.8375549316407	346.3032226562501	185.098373413086	92.12150573730472	420.1951293945315	78.8799743652344	45.37751770019533	390.5378417968752	93.22233581542972	131.2283782958985	463.230163574219	50.28885269165042	95.68946838378909	274.3585205078126	47.5786590576172	65.63460540771487	357.7379150390626	897.1647338867192	190.9951629638672	195.789031982422	890.0947265625005	188.1932067871094	354.6550292968751	903.5913085937505	352.9657287597657	350.7858276367189	1059.01025390625	184.4412078857422	315.8154907226564	486.8070983886721	309.072967529297	-89.9241638183594	536.228942871094	390.4050292968752	400.787048339844	514.5217285156252	716.1280517578127	358.6787109375001	899.6889648437505	272.0140380859376	413.2825317382815	90.4195251464844	309.5546264648439	67.81240844726565	5.660110473632814	463.9929199218752	563.1535644531252	127.7032928466797	665.2702636718752	320.686492919922	466.9971618652346	309.0970458984376	287.091766357422	78.45976257324222	349.7532043457032	281.8898925781251	263.3128051757814	332.5697326660157	325.2261047363282	96.34732055664068	530.6365966796877	468.7829589843752	79.99778747558597	311.2964477539064	226.5280151367189	77.94703674316409	362.5721435546876	224.7940063476564	139.5647430419922	356.8443908691407	239.2395019531251	83.90950775146487	422.8665771484377	287.0917358398439	78.45977783203128	349.7531738281251	305.1143493652345	474.3461914062502	85.21194458007815	-102.7697143554688	530.5139160156252	-16.80529785156251	200.7533264160157	462.9632568359377	496.1997680664065	356.7971191406251	894.6403808593755	109.9762878417969	406.3267517089846	85.586784362793	85.52333068847659	51.95193481445315	-6.759353637695316	-21.46833038330079	302.7150268554689	58.90508270263675	451.7325439453127	310.2037353515626	454.7978210449221	85.22762298583987	279.2184448242189	72.58576202392581	52.33858489990237	274.6525268554689	256.5030822753907	64.44687652587893	250.4900817871095	59.91166305541995	234.0171508789064	461.2813110351565	75.19832611083987	81.30998229980472	218.5308074951173	71.71492004394534	42.681453704834	217.0088500976564	133.0207214355469	46.7175636291504	208.9546966552736	67.49021911621097	103.2409820556641	279.2184448242189	72.58576202392581	52.33857727050784	366.769012451172	911.6530151367192	192.3130035400392	206.4141082763673	904.7065429687505	189.4960937500001	363.6788635253907	917.9519653320317	352.6896057128907	359.9396972656251	1071.908935546875	185.8872070312501	318.2789916992189	481.5920104980471	309.2479858398439	-109.8823242187501	534.770935058594	371.6675415039064	384.5672607421877	510.7129821777346	739.1365356445315	366.5497436523439	913.2982788085942	272.5606079101564	413.1170043945315	90.34089660644534	309.6329956054689	54.53018188476565	3.578865051269533	470.7545166015627	569.621032714844	128.6394958496094	678.566589355469	318.2788085937501	481.5925292968752	309.2485656738282	281.8389892578126	76.61360168457034	325.7780151367189	278.4959411621095	262.1109008789064	317.2564086914064	320.3148498535157	85.64356994628909	507.2473144531252	463.5020751953127	78.11469268798831	287.1863708496095	221.2850036621095	76.11329650878909	338.6419982910157	220.1706542968751	137.9456634521485	335.801483154297	234.1102752685548	79.1232833862305	399.1317138671877	281.8392944335939	76.61366271972659	325.7781372070314	308.5559997558595	472.5310058593752	85.80310058593753	-121.8945007324219	534.7994384765627	6.270553588867191	226.1641845703126	457.4745178222659	519.9405517578127	366.9886169433595	910.008178710938	112.064926147461	406.3340148925784	85.45110321044925	85.47589874267581	34.83517456054689	-8.296493530273441	-26.73366546630861	297.6186523437501	57.66510772705081	468.6206359863284	308.555877685547	472.5303344726565	85.80317687988284	270.4289855957032	70.70600128173831	76.12799835205081	266.8277587890626	261.9598083496095	81.80752563476565	240.5649871826173	64.53327941894534	265.0546264648439	459.4221496582034	73.37494659423831	106.0897369384766	207.4309997558595	69.8164978027344	66.14050292968753	206.2305908203126	133.5676879882813	68.03367614746097	197.4763488769532	67.75892639160159	129.1159820556641	270.4286499023439	70.7061462402344	76.12773895263675	-2.953308582305909	-12.61932563781739	8.313856124877933	0.8446444869041447	-11.11796665191651	20.33031082153321	0	0	13.02086639404298	0.007546621840447191	10.85948181152344	13.26256656646729	-5.467633724212648	-12.57558822631837	9.594939231872562	-2.021024227142335	-2.104143142700196	21.76658058166505	0.007274090778082613	6.766497611999515	13.70080661773682	0	0	13.60351848602296	2.316788911819459	0.9910756945610051	2.459635972976685	-2.316788911819459	-0.9910756945610051	2.459635972976685	-5.426642417907717	-11.95044803619385	-89.51495361328128	-3.812927484512331	-9.040668487548832	-89.17789459228518	-2.713979959487916	-9.609089851379398	8.751660346984867	1.613489985466004	-14.17729949951173	20.4827003479004	-2.684170007705689	10.98770046234131	13.09259986877442	-5.487020015716555	-8.983739852905277	10.17650032043457	-0.7692710161209111	-5.427730083465578	22.01599884033204	-2.075390100479127	6.871339797973636	13.28940010070801	2.688560009002686	-168.0070037841797	-90.47339630126956	1.72163999080658	-170.9919891357422	-90.80899810791018	177.7510070800782	1.103819966316224	-177.5180053710938	-177.7510070800782	-1.103819966316224	-177.5180053710938	366.5499877929689	913.2990112304692	272.561004638672	318.2789916992189	481.5920104980471	309.2479858398439	366.9890136718751	910.0079956054692	112.0650024414063	308.5559997558595	472.5310058593752	85.80310058593753	413.1170043945315	90.34089660644534	309.6329956054689	406.3340148925784	85.45110321044925	85.47589874267581	
319	3.18	310.175750732422	988.9003906250005	318.4519348144532	315.178924560547	978.4550781250005	54.98468399047854	507.3291320800784	993.4956054687505	239.9331054687501	509.9913330078127	990.7958374023442	137.5231475830079	343.4054565429689	651.8032226562502	373.845672607422	258.1259765625001	786.9161987304692	318.9819335937501	241.4407806396486	623.0361938476565	311.3942871093751	327.6763305664064	490.7011413574221	365.7753295898439	306.7601928710939	470.7159118652346	241.2277984619142	402.3589782714846	262.686248779297	367.2516479492189	290.7300720214845	376.8929443359376	297.3514709472657	348.3748168945314	208.1956329345704	291.9388732910157	431.3101501464846	87.91677856445315	348.506805419922	392.6536865234377	93.32769775390628	264.6268310546876	466.224060058594	57.6595268249512	299.3991699218751	277.5854492187501	56.03902435302737	339.3284301757814	357.0188598632814	688.054138183594	2.80845856666565	261.2033081054689	778.8938598632817	70.80005645751956	248.4469146728517	612.7185058593752	71.73885345458987	319.3089294433595	475.9267883300784	29.43124580383302	297.118377685547	469.2426757812502	143.9364624023438	376.4013671875001	303.7893066406251	12.95933437347413	313.1320800781251	317.9298400878907	102.8190917968751	346.2591857910157	185.1484375000001	92.05100250244143	420.2234802246096	78.87962341308597	45.3726272583008	390.5476684570315	93.20735168457034	131.2399139404297	463.3011169433596	50.40378570556643	95.84062957763675	274.3710327148439	47.58349227905275	65.64086914062503	357.747528076172	897.1873168945317	191.003158569336	195.7974395751954	890.1438598632817	188.2069854736329	354.6717224121095	903.6087036132817	352.9740295410157	350.8216247558595	1059.034301757813	184.4551544189454	315.8494873046876	486.8374328613284	309.1255798339845	-89.88174438476565	536.2481689453127	390.4609069824221	400.8282775878909	514.599060058594	716.1667480468752	358.6917419433595	899.708374023438	272.0220947265626	413.3434753417971	90.43166351318362	309.5212707519532	67.61502075195315	5.555007934570314	463.3764648437502	562.6640625000002	127.5116882324219	665.5156250000002	320.7214965820314	467.0277099609377	309.1453552246095	287.153289794922	78.44813537597659	349.7145080566407	281.9512634277345	263.3114624023439	332.641326904297	325.2904052734376	96.22785186767584	530.6079101562502	468.8439636230471	80.00903320312503	311.2558898925782	226.5897521972657	77.92785644531253	362.5340576171876	224.8557586669923	139.5489501953126	356.842987060547	239.3020935058595	83.85443115234378	422.8318481445315	287.1533203125001	78.44812011718753	349.7145385742189	305.168670654297	474.3712158203127	85.14375305175784	-102.7323303222657	530.5093994140627	-16.81749725341798	200.8544311523439	462.8956604003909	496.1397705078127	356.8033142089845	894.6658325195317	109.9842376708985	406.349304199219	85.57820892333987	85.51780700683597	51.96691894531253	-6.750358581542972	-21.55146026611329	302.6454467773439	58.94235992431643	451.7299804687502	310.2561035156251	454.8222351074221	85.16253662109378	279.2712402343751	72.50029754638675	52.24738693237308	274.5989379882814	256.4184875488282	64.30125427246097	250.4219512939454	59.8614196777344	233.9092254638673	461.312194824219	75.21779632568362	81.34594726562503	218.5909118652345	71.5944747924805	42.54786300659181	217.0334930419923	132.9005584716797	46.56581878662111	208.9744873046876	67.38151550292972	103.1018066406251	279.2712402343751	72.50029754638675	52.24737548828128	366.790985107422	911.6680297851567	192.3209991455079	206.4359283447267	904.7285766601567	189.4952087402344	363.6929321289064	917.9506835937505	352.6980895996095	359.968719482422	1071.924926757813	185.9112396240235	318.300994873047	481.5960083007815	309.238006591797	-109.8876953125001	534.7557373046877	371.4858703613282	384.4156799316409	510.7208557128909	739.1529541015627	366.5669860839845	913.304321289063	272.569061279297	413.1050109863284	90.33650207519534	309.6279907226564	54.51599121093753	3.609413146972658	470.7633056640627	569.624450683594	128.6301879882813	678.5555419921877	318.3007812500001	481.596374511719	309.2374572753907	281.8280029296876	76.58589935302737	325.7640075683595	278.4537963867189	262.0830383300782	317.2512512207032	320.2897949218751	85.61360168457034	507.2364196777346	463.4934997558596	78.11997985839847	287.1849975585939	221.2729949951173	76.07450103759768	338.623992919922	220.1482543945314	137.9068145751954	335.7864074707032	234.0935668945314	79.0837326049805	399.1147460937502	281.828094482422	76.58586120605472	325.7643432617189	308.5950012207032	472.5530090332034	85.77760314941409	-121.8786010742188	534.809997558594	6.361091613769535	226.3140258789064	457.4450378417971	519.9343261718752	367.0137939453126	910.0302124023442	112.0726165771485	406.3550109863284	85.46890258789065	85.47000122070315	34.90542602539064	-8.252563476562504	-26.92420196533205	297.4546813964845	57.66118621826175	468.5606384277346	308.595672607422	472.5528259277346	85.77776336669925	270.4540100097657	70.67120361328128	76.13539886474612	266.7816467285157	261.9246215820314	81.78138732910159	240.6062164306642	64.52067565917972	265.0653076171876	459.4483642578127	73.41611480712893	106.0827178955079	207.4559936523439	69.75630187988284	66.15299987792972	206.2318725585939	133.5073699951172	68.03499603271487	197.5067443847657	67.70613098144534	129.1295776367188	270.4540405273439	70.67127227783206	76.13542938232425	-2.961054325103761	-12.61733722686768	8.301832199096683	0.8618398308753972	-11.01962184906006	20.33449935913087	0	0	13.01938152313233	0.00766834802925587	10.7684440612793	13.2569980621338	-5.476604461669924	-12.5708990097046	9.579127311706547	-1.997277140617371	-2.118206977844239	21.75967025756837	0.007275428622961048	6.741741180419925	13.66154289245606	0	0	13.56525325775147	2.314704895019532	0.9890148043632512	2.450356721878053	-2.314704895019532	-0.9890148043632512	2.450356721878053	-5.391762733459474	-11.95099925994873	-89.50781250000003	-3.796207189559938	-9.080691337585453	-89.1447677612305	-2.717629909515382	-9.58837985992432	8.748330116271976	1.61933982372284	-14.20189952850343	20.47599983215333	-2.682169914245606	10.99499988555909	13.07750034332276	-5.485260009765627	-8.9669303894043	10.17240047454834	-0.7561299800872807	-5.467179775238039	22.01300048828126	-2.082030057907105	6.904910087585453	13.26529979705811	2.685739994049073	-168.0110015869141	-90.48379516601565	1.711599946022035	-170.9969940185547	-90.8320007324219	177.7570037841797	1.106639981269837	-177.520980834961	-177.7570037841797	-1.106639981269837	-177.520980834961	366.5669860839845	913.3049926757817	272.5690002441407	318.300994873047	481.5960083007815	309.238006591797	367.0140075683595	910.0300292968755	112.0729980468751	308.5950012207032	472.5530090332034	85.77760314941409	413.1050109863284	90.33650207519534	309.6279907226564	406.3550109863284	85.46890258789065	85.47000122070315	
